<svg xmlns="http://www.w3.org/2000/svg" viewBox="0 0 40.74 40.74"><defs><style>.cls-1{fill:#231f20;}.cls-2{fill:#fff;fill-rule:evenodd;}</style></defs><title>Asset 2</title><g id="Layer_2" data-name="Layer 2"><g id="Layer_1-2" data-name="Layer 1"><rect class="cls-1" width="40.74" height="40.74"/><path class="cls-2" d="M20.37,4.48a16.29,16.29,0,0,0-5.15,31.75c.82.15,1.11-.35,1.11-.78s0-1.41,0-2.77c-4.53,1-5.48-2.19-5.48-2.19A4.35,4.35,0,0,0,9,28.11c-1.48-1,.11-1,.11-1a3.4,3.4,0,0,1,2.49,1.68,3.46,3.46,0,0,0,4.74,1.35,3.49,3.49,0,0,1,1-2.18c-3.62-.41-7.42-1.81-7.42-8a6.26,6.26,0,0,1,1.68-4.37,5.82,5.82,0,0,1,.16-4.31s1.36-.44,4.47,1.67a15.41,15.41,0,0,1,8.16,0c3.11-2.11,4.48-1.67,4.48-1.67a5.88,5.88,0,0,1,.16,4.31,6.3,6.3,0,0,1,1.67,4.37c0,6.26-3.81,7.64-7.43,8a3.91,3.91,0,0,1,1.1,3c0,2.18,0,3.93,0,4.47s.29.94,1.12.78A16.3,16.3,0,0,0,20.37,4.48Z"/></g></g></svg>